<svg width="224" height="32" viewBox="0 0 224 32" fill="none" xmlns="http://www.w3.org/2000/svg">
<path d="M0.204697 2.95356C0.192986 2.63267 0.246857 2.31413 0.361627 2.01666C0.476396 1.7192 0.649721 1.45218 0.869892 1.22967C1.3805 0.784646 2.02227 0.543396 2.68512 0.543396C3.34798 0.543396 3.98975 0.786988 4.50036 1.22967C4.71818 1.45687 4.89151 1.72622 5.00862 2.02369C5.12573 2.32115 5.18663 2.6397 5.18663 2.96292C5.18663 3.28615 5.12573 3.6047 5.00862 3.90216C4.89151 4.19962 4.71818 4.46898 4.50036 4.69618C3.99209 5.1412 3.35266 5.38245 2.68981 5.38245C2.02696 5.38245 1.38753 5.13886 0.879261 4.69618C0.65909 4.47132 0.483423 4.19962 0.368653 3.89982C0.253884 3.59767 0.19767 3.27678 0.204697 2.95356ZM4.91259 24.9237H0.462343V7.46236H4.91259V24.9237Z" fill="white"/>
<path d="M7.80754 16.1099C7.80754 13.4023 8.45868 11.2263 9.75862 9.57738C10.3676 8.77634 11.164 8.13456 12.0774 7.70359C12.9909 7.27262 13.9957 7.06651 15.0052 7.10398C15.8672 7.05948 16.7291 7.21641 17.5208 7.56072C18.3125 7.90503 19.0105 8.42969 19.5632 9.08785L19.7529 7.42487H24.0603V24.4623C24.0954 25.8793 23.7254 27.2753 22.9969 28.4933C22.2826 29.6363 21.2426 30.5451 20.0106 31.1049C18.5935 31.7279 17.057 32.0324 15.5088 31.9973C14.2018 31.9973 12.9089 31.7326 11.705 31.2267C10.6135 30.8121 9.64854 30.1211 8.90839 29.224L11.0047 26.3572C11.534 26.9802 12.1945 27.4791 12.9394 27.821C13.6842 28.163 14.497 28.3363 15.3167 28.3317C16.3942 28.3926 17.4529 28.0318 18.2633 27.3268C18.6263 26.9497 18.9074 26.5047 19.0877 26.0152C19.2681 25.5257 19.343 25.0057 19.3103 24.4857V23.5418C18.7715 24.1484 18.1063 24.6262 17.3568 24.9448C16.6097 25.2633 15.7992 25.4109 14.9865 25.3781C13.9864 25.4039 12.9932 25.1931 12.0915 24.7597C11.1897 24.3264 10.4074 23.687 9.80547 22.893C8.47976 21.23 7.82628 19.0119 7.82628 16.3043V16.1052H7.80286L7.80754 16.1099ZM12.5506 16.4472C12.478 17.7682 12.8176 19.0798 13.5249 20.2018C13.813 20.6351 14.2089 20.9911 14.6726 21.23C15.1387 21.4689 15.6564 21.5884 16.181 21.572C16.7994 21.6141 17.4154 21.4876 17.9635 21.2019C18.5116 20.9185 18.9706 20.4899 19.2892 19.9629V12.5356C18.98 12.011 18.528 11.58 17.9846 11.2966C17.4412 11.0132 16.8298 10.8843 16.2185 10.9265C15.6868 10.9101 15.1622 11.0296 14.6914 11.2732C14.2206 11.5168 13.8224 11.8775 13.5343 12.3201C12.8808 13.2453 12.5506 14.6155 12.5506 16.4472Z" fill="white"/>
<path d="M31.6188 7.43423L31.7687 9.51882C32.3683 8.73651 33.1389 8.10879 34.0196 7.68953C34.9003 7.27027 35.8676 7.0665 36.8396 7.10163C38.7087 7.10163 40.1024 7.66845 41.0065 8.79975C41.9106 9.93339 42.3884 11.587 42.4165 13.8238V25.4507H37.7063V13.9363C37.7765 13.1376 37.5423 12.3412 37.0575 11.7112C36.76 11.4558 36.4157 11.2638 36.0433 11.1443C35.6709 11.0249 35.2821 10.9827 34.8932 11.0202C34.289 10.9968 33.6893 11.1443 33.1647 11.4512C32.64 11.7557 32.2067 12.2054 31.9186 12.7488V25.439H27.2084V7.44594L31.6188 7.43423Z" fill="white"/>
<path d="M45.2998 2.95355C45.288 2.63266 45.3489 2.31412 45.4754 2.01665C45.6019 1.71919 45.7916 1.45218 46.0352 1.22732C46.5997 0.784639 47.3117 0.541046 48.0449 0.541046C48.778 0.541046 49.4877 0.784639 50.0545 1.22732C50.537 1.68874 50.8064 2.31178 50.8064 2.96058C50.8064 3.60937 50.537 4.23241 50.0545 4.69383C49.4924 5.13651 48.7827 5.3801 48.0519 5.3801C47.3211 5.3801 46.6114 5.13651 46.0493 4.69383C45.8057 4.46897 45.6136 4.19728 45.4848 3.89747C45.356 3.59766 45.2951 3.27678 45.3044 2.95355H45.2998ZM50.5042 24.9261H45.5879V7.46235H50.5042V24.9237V24.9261Z" fill="white"/>
<path d="M59.482 3.16436V7.542H62.4309V11.0319H59.482V19.9371C59.4352 20.4407 59.5687 20.9466 59.8568 21.3565C60.0488 21.5251 60.2714 21.6493 60.5126 21.7242C60.7539 21.7968 61.0068 21.8179 61.2551 21.7828C61.7072 21.7851 62.1569 21.75 62.6042 21.675V25.2844C61.7001 25.5702 60.7585 25.7131 59.8146 25.7107C56.5894 25.7107 54.9475 24.0266 54.8889 20.6609V11.053H52.3804V7.56308H54.8889V3.18544H59.4844V3.16202L59.482 3.16436Z" fill="white"/>
<path d="M72.8022 25.7037C71.6264 25.7482 70.453 25.5585 69.3498 25.1439C68.2489 24.7293 67.2418 24.0969 66.3868 23.2842C64.7356 21.6704 63.9134 19.5272 63.9134 16.8313V16.3629C63.8806 14.6952 64.239 13.0439 64.9557 11.5402C65.5999 10.1794 66.6257 9.03635 67.9093 8.2517C69.2256 7.46939 70.734 7.07121 72.2659 7.09464C74.7111 7.09464 76.6505 7.86757 78.0535 9.41813C79.4565 10.9687 80.1662 13.1587 80.1662 15.9951V17.9462H68.7666C68.872 19.026 69.3685 20.0285 70.1649 20.7663C70.98 21.4806 72.0363 21.8577 73.1184 21.8203C73.9452 21.8577 74.772 21.6938 75.5216 21.3448C76.2734 20.9958 76.9292 20.4688 77.4352 19.813L79.7844 22.4527C79.0443 23.4926 78.0371 24.3147 76.8707 24.8324C75.5965 25.425 74.2076 25.7224 72.8022 25.7014V25.7037ZM72.2377 10.9781C71.8068 10.9617 71.3781 11.039 70.98 11.2053C70.5818 11.3716 70.2258 11.6198 69.933 11.9384C69.2912 12.7277 68.9001 13.6904 68.8064 14.7022H75.456V14.3181C75.4934 13.414 75.1866 12.5263 74.594 11.8423C74.2872 11.5449 73.9218 11.3153 73.5213 11.1678C73.1208 11.0202 72.6945 10.9546 72.2682 10.9804H72.2401L72.2377 10.9781Z" fill="white"/>
<path d="M93.004 24.9237H88.2985V0H93.004V24.9237Z" fill="white"/>
<path d="M106.708 24.9237C106.493 24.5021 106.336 23.9775 106.238 23.3497C105.102 24.6146 103.626 25.2493 101.808 25.2493C100.089 25.2493 98.6629 24.7527 97.5339 23.7573C96.4026 22.7618 95.8381 21.5064 95.8381 19.9933C95.8381 18.1336 96.5268 16.7048 97.9063 15.7094C99.2859 14.7139 101.279 14.2103 103.886 14.201H106.043V13.1938C106.043 12.3834 105.835 11.7323 105.418 11.2474C105.001 10.7602 104.345 10.5166 103.446 10.5166C102.656 10.5166 102.036 10.7064 101.588 11.0858C101.139 11.4652 100.916 11.9829 100.916 12.6434H96.2269C96.2269 11.6269 96.5408 10.6853 97.1685 9.821C97.7962 8.95671 98.684 8.27746 99.8293 7.78559C100.975 7.29373 102.263 7.04779 103.692 7.04779C105.856 7.04779 107.573 7.59119 108.845 8.67799C110.116 9.76478 110.751 11.2943 110.751 13.2617V20.8717C110.763 22.537 110.995 23.7971 111.449 24.652V24.9284H106.711L106.708 24.9237ZM102.83 21.6633C103.521 21.6633 104.16 21.5087 104.743 21.2019C105.327 20.8927 105.76 20.4805 106.041 19.9605V16.9414H104.289C101.942 16.9414 100.691 17.7518 100.541 19.375L100.525 19.6514C100.525 20.2346 100.731 20.7171 101.141 21.0965C101.553 21.476 102.115 21.6657 102.83 21.6657V21.6633Z" fill="white"/>
<path d="M129.84 16.309C129.84 19.122 129.241 21.3143 128.039 22.8883C126.838 24.4623 125.161 25.2493 123.008 25.2493C121.104 25.2493 119.584 24.5185 118.448 23.0593L118.237 24.9261H114.019V0H118.708V8.94031C119.79 7.6755 121.212 7.04076 122.975 7.04076C125.116 7.04076 126.795 7.82775 128.013 9.40173C129.231 10.9757 129.838 13.1915 129.838 16.0467V16.3066L129.84 16.309ZM125.151 15.9694C125.151 14.1963 124.87 12.901 124.308 12.0836C123.746 11.2662 122.907 10.8586 121.792 10.8586C120.3 10.8586 119.272 11.4699 118.71 12.6926V19.6209C119.284 20.8529 120.322 21.4713 121.825 21.4713C123.329 21.4713 124.334 20.7241 124.812 19.2321C125.039 18.5177 125.151 17.4309 125.151 15.9694Z" fill="white"/>
<path d="M161.112 20.9138H159.167L154.183 12.9784V20.9138H152.239V9.72968H154.183L159.184 17.6956V9.72968H161.112V20.9138Z" fill="#B6B6C6"/>
<path d="M173.907 15.6134C173.907 16.7095 173.717 17.6698 173.338 18.4966C172.959 19.3235 172.418 19.9582 171.712 20.4009C171.007 20.8436 170.197 21.0661 169.281 21.0661C168.365 21.0661 167.567 20.8436 166.857 20.4009C166.147 19.9582 165.599 19.3258 165.213 18.5084C164.826 17.6886 164.63 16.7447 164.625 15.6743V15.0442C164.625 13.9527 164.819 12.9901 165.206 12.1562C165.592 11.3224 166.138 10.683 166.841 10.2403C167.543 9.79759 168.354 9.57507 169.265 9.57507C170.176 9.57507 170.984 9.7929 171.689 10.2309C172.394 10.6689 172.937 11.299 173.322 12.1211C173.706 12.9432 173.9 13.8988 173.905 14.9903V15.6134H173.907ZM171.963 15.0301C171.963 13.7911 171.729 12.8401 171.26 12.1796C170.792 11.5191 170.127 11.1889 169.267 11.1889C168.408 11.1889 167.771 11.5191 167.297 12.175C166.824 12.8331 166.583 13.763 166.571 14.9669V15.611C166.571 16.8407 166.81 17.7893 167.29 18.4615C167.768 19.1314 168.433 19.4687 169.284 19.4687C170.134 19.4687 170.806 19.1408 171.27 18.4849C171.734 17.8291 171.965 16.8711 171.965 15.6134V15.0301H171.963Z" fill="#B6B6C6"/>
<path d="M177.416 20.9138V9.72968H180.718C181.707 9.72968 182.583 9.94985 183.349 10.3902C184.115 10.8305 184.707 11.4559 185.126 12.264C185.546 13.0744 185.756 13.9996 185.756 15.0442V15.604C185.756 16.665 185.546 17.5949 185.122 18.4006C184.7 19.204 184.098 19.8247 183.316 20.2604C182.536 20.696 181.641 20.9138 180.632 20.9138H177.413H177.416ZM179.36 11.2966V19.3609H180.627C181.646 19.3609 182.428 19.0424 182.974 18.4053C183.52 17.7682 183.796 16.8524 183.808 15.6602V15.0372C183.808 13.8239 183.543 12.8964 183.016 12.2569C182.489 11.6175 181.723 11.2966 180.718 11.2966H179.36Z" fill="#B6B6C6"/>
<path d="M195.802 15.9202H191.209V19.3609H196.578V20.9115H189.265V9.72968H196.524V11.2966H191.209V14.3837H195.802V15.9202Z" fill="#B6B6C6"/>
<path d="M200.716 18.9464C201.065 18.9464 201.332 19.0447 201.522 19.2415C201.712 19.4382 201.806 19.6865 201.806 19.984C201.806 20.2814 201.71 20.518 201.522 20.7101C201.332 20.9021 201.063 20.9981 200.716 20.9981C200.37 20.9981 200.119 20.9045 199.925 20.7147C199.73 20.525 199.632 20.2814 199.632 19.984C199.632 19.6865 199.726 19.4406 199.915 19.2415C200.105 19.0447 200.372 18.9464 200.714 18.9464H200.716Z" fill="#B6B6C6"/>
<path d="M210.277 9.72968H212.212V17.5715C212.212 18.6419 211.877 19.4921 211.21 20.1222C210.542 20.7522 209.659 21.0661 208.563 21.0661C207.396 21.0661 206.495 20.771 205.86 20.1831C205.225 19.5952 204.907 18.7754 204.907 17.7261H206.841C206.841 18.321 206.989 18.766 207.284 19.0658C207.579 19.3656 208.005 19.5155 208.563 19.5155C209.085 19.5155 209.502 19.3422 209.811 18.9979C210.12 18.6512 210.275 18.1758 210.275 17.5645V9.72968H210.277Z" fill="#B6B6C6"/>
<path d="M221.853 18.0329C221.853 17.541 221.679 17.1616 221.335 16.8969C220.991 16.6322 220.365 16.3629 219.464 16.0912C218.562 15.8195 217.845 15.5173 217.313 15.1847C216.295 14.5453 215.784 13.7091 215.784 12.6809C215.784 11.7791 216.152 11.0366 216.887 10.4534C217.623 9.8702 218.576 9.57742 219.749 9.57742C220.527 9.57742 221.22 9.7203 221.832 10.0084C222.441 10.2941 222.921 10.704 223.267 11.2334C223.616 11.7627 223.79 12.3506 223.79 12.9971H221.855C221.855 12.4139 221.672 11.9571 221.307 11.6269C220.942 11.2966 220.417 11.1303 219.735 11.1303C219.101 11.1303 218.606 11.2662 218.257 11.5379C217.906 11.8096 217.73 12.189 217.73 12.6739C217.73 13.0837 217.92 13.4257 218.3 13.6998C218.679 13.9738 219.302 14.2408 220.173 14.4985C221.045 14.7561 221.743 15.0512 222.27 15.3815C222.797 15.7117 223.183 16.0912 223.429 16.5175C223.675 16.9461 223.797 17.445 223.797 18.0188C223.797 18.951 223.441 19.6912 222.726 20.2416C222.012 20.792 221.042 21.0684 219.82 21.0684C219.009 21.0684 218.267 20.9185 217.588 20.6187C216.908 20.3189 216.381 19.9067 216.004 19.3773C215.627 18.8503 215.44 18.2343 215.44 17.534H217.384C217.384 18.1687 217.595 18.6606 218.014 19.0096C218.433 19.3586 219.035 19.5319 219.82 19.5319C220.497 19.5319 221.003 19.3961 221.344 19.122C221.684 18.848 221.855 18.4849 221.855 18.0352L221.853 18.0329Z" fill="#B6B6C6"/>
<path d="M142.835 31.4609H138.13V0.541077H142.835V31.4609Z" fill="#00B37E"/>
</svg>
